<mxfile host="app.diagrams.net" modified="2024-04-04T08:34:05.012Z" agent="Mozilla/5.0 (X11; Linux x86_64) AppleWebKit/537.36 (KHTML, like Gecko) Chrome/122.0.0.0 Safari/537.36" version="24.0.7" etag="ksAGqtZAjg2MaxyRi6O3" type="github">
  <diagram name="Page-1" id="O39PKS0RpgpW95kvA_HG">
    <mxGraphModel>
      <root>
        <mxCell id="0" />
        <mxCell id="1" parent="0" />
      </root>
    </mxGraphModel>
  </diagram>
</mxfile>
